<?xml version="1.0" encoding="UTF-8"?>
<svg id="Ebene_1" data-name="Ebene 1" xmlns="http://www.w3.org/2000/svg" viewBox="0 0 706.61 317.45">
  <defs>
    <style>
      .cls-1 {
        fill: none;
        stroke: #000;
        stroke-linecap: round;
        stroke-miterlimit: 10;
        stroke-width: 8px;
      }

      .cls-2 {
        fill: #000;
        stroke-width: 0px;
      }
    </style>
  </defs>
  <path class="cls-2" d="M254.31,71.45h-31.26v-5.22l17.28-18.54h-16.44v-7.02h29.4v5.28l-17.22,18.36h18.24v7.14Z"/>
  <path class="cls-2" d="M289.17,71.45h-8.94v-4.2c-2.58,3.6-5.82,4.86-9.54,4.86-8.64,0-10.98-6.9-10.98-14.7v-16.74h8.94v16.56c0,4.26,1.56,7.5,5.7,7.5s5.88-3.3,5.88-7.56v-16.5h8.94v30.78Z"/>
  <path class="cls-2" d="M315.63,60.59c.9,3.54,4.02,4.62,6.48,4.62,1.98,0,4.02-.78,4.02-2.34,0-1.02-.6-1.74-2.28-2.34l-5.4-2.28c-7.32-2.58-7.68-7.44-7.68-8.82,0-6.18,5.46-9.42,12.06-9.42,3.54,0,8.22.96,11.1,6.48l-6.9,3.18c-.78-2.46-3-2.94-4.38-2.94-1.68,0-3.42.96-3.42,2.52,0,1.32,1.32,2.04,2.88,2.64l4.62,1.8c7.26,2.1,7.92,6.84,7.92,8.88,0,6.3-5.82,9.54-12.6,9.54-4.56,0-10.8-1.44-12.9-7.86l6.48-3.66Z"/>
  <path class="cls-2" d="M340.41,85.49v-44.82h8.94v4.5c2.22-3.18,5.16-5.16,9.66-5.16,9.36,0,15,7.2,15,16.2s-5.22,15.9-14.82,15.9c-4.14,0-7.74-2.04-9.84-4.86v18.24h-8.94ZM357.15,47.27c-4.38,0-8.04,2.82-8.04,8.4s3.42,9.18,8.28,9.18,7.68-3.96,7.68-8.7-3-8.88-7.92-8.88Z"/>
  <path class="cls-2" d="M411.69,40.67v30.78h-8.94v-4.5c-2.22,3.18-5.16,5.16-9.66,5.16-9.36,0-15-7.2-15-16.2s5.22-15.9,14.82-15.9c4.14,0,7.74,2.04,9.84,4.86v-4.2h8.94ZM388.29,26.75c2.88,0,5.22,2.1,5.22,4.86s-2.34,4.74-5.22,4.74-5.22-2.04-5.22-4.74,2.22-4.86,5.22-4.86ZM394.95,64.85c4.38,0,8.04-2.82,8.04-8.4s-3.42-9.18-8.28-9.18-7.68,3.96-7.68,8.7,3,8.88,7.92,8.88ZM403.11,26.75c2.94,0,5.28,2.1,5.28,4.86s-2.34,4.74-5.28,4.74-5.16-2.04-5.16-4.74,2.22-4.86,5.16-4.86Z"/>
  <path class="cls-2" d="M430.41,40.67h8.52v7.02h-8.52v14.4c0,1.32.54,2.7,2.28,2.7s2.34-1.44,2.34-2.88c0-.9-.24-2.16-.42-2.64h7.08c.54,1.14.72,2.58.72,3.66,0,4.56-3,9.18-10.26,9.18-5.4,0-10.68-1.92-10.68-10.86v-13.56h-4.62v-7.02h5.28l1.38-7.56h6.9v7.56Z"/>
  <path class="cls-2" d="M472.65,40.91h6.9v6.78h-6.9v23.76h-8.94v-23.76h-4.32v-6.78h4.32v-2.04c0-8.94,5.28-11.46,10.68-11.46,7.26,0,9.84,4.62,9.84,9.18,0,.3-.12,1.32-.3,1.68h-6.9c.18-.18.24-.78.24-1.02,0-1.44-.6-2.7-2.34-2.7s-2.28,1.56-2.28,2.88v3.48Z"/>
  <path class="cls-2" d="M514.64,71.45h-8.94v-4.2c-2.58,3.6-5.82,4.86-9.54,4.86-8.64,0-10.98-6.9-10.98-14.7v-16.74h8.94v16.56c0,4.26,1.56,7.5,5.7,7.5s5.88-3.3,5.88-7.56v-16.5h8.94v30.78ZM492.68,26.75c2.88,0,5.22,2.1,5.22,4.86s-2.34,4.74-5.22,4.74-5.22-2.04-5.22-4.74,2.22-4.86,5.22-4.86ZM507.5,26.75c2.94,0,5.28,2.1,5.28,4.86s-2.34,4.74-5.28,4.74-5.16-2.04-5.16-4.74,2.22-4.86,5.16-4.86Z"/>
  <path class="cls-2" d="M531.08,47.39c1.02-5.58,5.76-7.38,8.46-7.38,1.02,0,1.32.06,2.28.24v8.82c-1.26-.3-2.88-.42-3.78-.42-3.36,0-6.72,1.98-6.72,6.06v16.74h-8.94v-30.78h8.7v6.72Z"/>
  <path class="cls-2" d="M417.8,100.07v43.38h-8.94v-4.5c-2.22,3.18-5.16,5.16-9.66,5.16-9.36,0-15-7.2-15-16.2s5.22-15.9,14.82-15.9c4.14,0,7.74,2.04,9.84,4.86v-16.8h8.94ZM401.06,136.85c4.38,0,8.04-2.82,8.04-8.4s-3.42-9.18-8.28-9.18-7.68,3.96-7.68,8.7,3,8.88,7.92,8.88Z"/>
  <path class="cls-2" d="M430.22,99.41c3.18,0,5.7,2.1,5.7,5.1s-2.52,4.98-5.7,4.98-5.64-2.04-5.64-4.98,2.4-5.1,5.64-5.1ZM425.66,143.45v-30.78h8.94v30.78h-8.94Z"/>
  <path class="cls-2" d="M472.46,138.05c-4.38,4.8-10.2,6.06-14.34,6.06-11.4,0-17.64-7.14-17.64-15.9s7.08-16.2,16.98-16.2c8.52,0,16.68,5.88,16.68,18.12h-24.78c.18,3.84,3.72,6.66,9.42,6.66,3.18,0,6.36-1.62,8.52-3.66l5.16,4.92ZM449.54,124.73h15.42c-.6-3.96-4.62-5.46-7.62-5.46s-6.72,1.32-7.8,5.46Z"/>
  <path class="cls-2" d="M510.32,113.51h6.24l5.58,17.7,5.34-18.54h9.84l-2.4,7.02-8.58,23.76h-7.62l-5.28-17.46-5.28,17.46h-7.62l-8.58-23.76-2.4-7.02h9.84l5.34,18.54,5.58-17.7Z"/>
  <path class="cls-2" d="M571.16,138.05c-4.38,4.8-10.2,6.06-14.34,6.06-11.4,0-17.64-7.14-17.64-15.9s7.08-16.2,16.98-16.2c8.52,0,16.68,5.88,16.68,18.12h-24.78c.18,3.84,3.72,6.66,9.42,6.66,3.18,0,6.36-1.62,8.52-3.66l5.16,4.92ZM548.24,124.73h15.42c-.6-3.96-4.62-5.46-7.62-5.46s-6.72,1.32-7.8,5.46Z"/>
  <path class="cls-2" d="M578.18,143.45v-43.38h8.94v43.38h-8.94Z"/>
  <path class="cls-2" d="M595.04,143.45v-43.38h8.94v43.38h-8.94Z"/>
  <path class="cls-2" d="M641.84,138.05c-4.38,4.8-10.2,6.06-14.34,6.06-11.4,0-17.64-7.14-17.64-15.9s7.08-16.2,16.98-16.2c8.52,0,16.68,5.88,16.68,18.12h-24.78c.18,3.84,3.72,6.66,9.42,6.66,3.18,0,6.36-1.62,8.52-3.66l5.16,4.92ZM618.92,124.73h15.42c-.6-3.96-4.62-5.46-7.62-5.46s-6.72,1.32-7.8,5.46Z"/>
  <g>
    <path class="cls-1" d="M570.69,58.62c15.52-13.8,36.68-12.45,46.56-9.2,9.31,3.07,12.53,6.76,21.45,5.35,16.73-1.82,16.7-15.78,15.8-22.21-.88-6.81-5.15-13.13-10.86-16.86-2-1.42-9.38-5.3-10.12-5.57-.17-.11-.34-.13-.44-.24-.06-.06,0-.1.1-.15,20.96-7.83,56.06-15.08,69.44,32.03"/>
    <path class="cls-1" d="M584.27,69.21c8.03-8.41,25.19-10.7,40.14-5.62,23.72,7.57,31.11-9.83,30.09-31.03"/>
    <path class="cls-1" d="M601.29,77.79c4.49-3.78,15.78-5.8,22.12-4.55,5.17.69,10.53,2.55,15.68.76,18.12-6.64,18.25-22.86,15.41-41.44"/>
  </g>
</svg>